{
  "asset": {
    "version": "2.0",
    "generator": "Dora Rerun tutorial model generator"
  },
  "scene": 0,
  "scenes": [
    {
      "nodes": [
        0,
        1,
        2,
        3,
        4,
        5
      ]
    }
  ],
  "nodes": [
    {
      "name": "torso",
      "mesh": 0
    },
    {
      "name": "head",
      "mesh": 1
    },
    {
      "name": "left_leg",
      "mesh": 2
    },
    {
      "name": "right_leg",
      "mesh": 3
    },
    {
      "name": "left_arm",
      "mesh": 4
    },
    {
      "name": "right_arm",
      "mesh": 5
    }
  ],
  "meshes": [
    {
      "name": "torso",
      "primitives": [
        {
          "attributes": {
            "POSITION": 0
          },
          "indices": 1,
          "material": 0,
          "mode": 4
        }
      ]
    },
    {
      "name": "head",
      "primitives": [
        {
          "attributes": {
            "POSITION": 2
          },
          "indices": 3,
          "material": 1,
          "mode": 4
        }
      ]
    },
    {
      "name": "left_leg",
      "primitives": [
        {
          "attributes": {
            "POSITION": 4
          },
          "indices": 5,
          "material": 2,
          "mode": 4
        }
      ]
    },
    {
      "name": "right_leg",
      "primitives": [
        {
          "attributes": {
            "POSITION": 6
          },
          "indices": 7,
          "material": 2,
          "mode": 4
        }
      ]
    },
    {
      "name": "left_arm",
      "primitives": [
        {
          "attributes": {
            "POSITION": 8
          },
          "indices": 9,
          "material": 2,
          "mode": 4
        }
      ]
    },
    {
      "name": "right_arm",
      "primitives": [
        {
          "attributes": {
            "POSITION": 10
          },
          "indices": 11,
          "material": 2,
          "mode": 4
        }
      ]
    }
  ],
  "materials": [
    {
      "name": "robot_blue",
      "pbrMetallicRoughness": {
        "baseColorFactor": [
          0.2,
          0.42,
          0.78,
          1.0
        ],
        "metallicFactor": 0.05,
        "roughnessFactor": 0.62
      }
    },
    {
      "name": "robot_light",
      "pbrMetallicRoughness": {
        "baseColorFactor": [
          0.45,
          0.66,
          0.95,
          1.0
        ],
        "metallicFactor": 0.05,
        "roughnessFactor": 0.62
      }
    },
    {
      "name": "robot_dark",
      "pbrMetallicRoughness": {
        "baseColorFactor": [
          0.12,
          0.18,
          0.28,
          1.0
        ],
        "metallicFactor": 0.05,
        "roughnessFactor": 0.62
      }
    }
  ],
  "buffers": [
    {
      "uri": "data:application/octet-stream;base64,",
      "byteLength": 1008
    }
  ],
  "bufferViews": [
    {
      "buffer": 0,
      "byteOffset": 0,
      "byteLength": 576,
      "target": 34962
    },
    {
      "buffer": 0,
      "byteOffset": 576,
      "byteLength": 432,
      "target": 34963
    }
  ],
  "accessors": [
    {
      "bufferView": 0,
      "byteOffset": 0,
      "componentType": 5126,
      "count": 8,
      "type": "VEC3",
      "min": [
        -0.21,
        -0.14,
        0.54
      ],
      "max": [
        0.21,
        0.14,
        1.3599999999999999
      ]
    },
    {
      "bufferView": 1,
      "byteOffset": 0,
      "componentType": 5123,
      "count": 36,
      "type": "SCALAR"
    },
    {
      "bufferView": 0,
      "byteOffset": 96,
      "componentType": 5126,
      "count": 8,
      "type": "VEC3",
      "min": [
        -0.17,
        -0.15,
        1.4000000000000001
      ],
      "max": [
        0.17,
        0.15,
        1.7
      ]
    },
    {
      "bufferView": 1,
      "byteOffset": 72,
      "componentType": 5123,
      "count": 36,
      "type": "SCALAR"
    },
    {
      "bufferView": 0,
      "byteOffset": 192,
      "componentType": 5126,
      "count": 8,
      "type": "VEC3",
      "min": [
        -0.19,
        -0.08,
        0.0
      ],
      "max": [
        -0.07,
        0.08,
        0.7
      ]
    },
    {
      "bufferView": 1,
      "byteOffset": 144,
      "componentType": 5123,
      "count": 36,
      "type": "SCALAR"
    },
    {
      "bufferView": 0,
      "byteOffset": 288,
      "componentType": 5126,
      "count": 8,
      "type": "VEC3",
      "min": [
        0.07,
        -0.08,
        0.0
      ],
      "max": [
        0.19,
        0.08,
        0.7
      ]
    },
    {
      "bufferView": 1,
      "byteOffset": 216,
      "componentType": 5123,
      "count": 36,
      "type": "SCALAR"
    },
    {
      "bufferView": 0,
      "byteOffset": 384,
      "componentType": 5126,
      "count": 8,
      "type": "VEC3",
      "min": [
        -0.07,
        -0.31,
        0.6100000000000001
      ],
      "max": [
        0.07,
        -0.19,
        1.23
      ]
    },
    {
      "bufferView": 1,
      "byteOffset": 288,
      "componentType": 5123,
      "count": 36,
      "type": "SCALAR"
    },
    {
      "bufferView": 0,
      "byteOffset": 480,
      "componentType": 5126,
      "count": 8,
      "type": "VEC3",
      "min": [
        -0.07,
        0.19,
        0.6100000000000001
      ],
      "max": [
        0.07,
        0.31,
        1.23
      ]
    },
    {
      "bufferView": 1,
      "byteOffset": 360,
      "componentType": 5123,
      "count": 36,
      "type": "SCALAR"
    }
  ]
}