{
  "asset": {
    "version": "2.0",
    "generator": "Dora Rerun tutorial model generator"
  },
  "scene": 0,
  "scenes": [
    {
      "nodes": [
        0,
        1,
        2,
        3,
        4,
        5
      ]
    }
  ],
  "nodes": [
    {
      "name": "body",
      "mesh": 0
    },
    {
      "name": "cabin",
      "mesh": 1
    },
    {
      "name": "wheel_-0.28_-0.29",
      "mesh": 2
    },
    {
      "name": "wheel_-0.28_0.29",
      "mesh": 3
    },
    {
      "name": "wheel_0.28_-0.29",
      "mesh": 4
    },
    {
      "name": "wheel_0.28_0.29",
      "mesh": 5
    }
  ],
  "meshes": [
    {
      "name": "body",
      "primitives": [
        {
          "attributes": {
            "POSITION": 0
          },
          "indices": 1,
          "material": 0,
          "mode": 4
        }
      ]
    },
    {
      "name": "cabin",
      "primitives": [
        {
          "attributes": {
            "POSITION": 2
          },
          "indices": 3,
          "material": 1,
          "mode": 4
        }
      ]
    },
    {
      "name": "wheel_-0.28_-0.29",
      "primitives": [
        {
          "attributes": {
            "POSITION": 4
          },
          "indices": 5,
          "material": 2,
          "mode": 4
        }
      ]
    },
    {
      "name": "wheel_-0.28_0.29",
      "primitives": [
        {
          "attributes": {
            "POSITION": 6
          },
          "indices": 7,
          "material": 2,
          "mode": 4
        }
      ]
    },
    {
      "name": "wheel_0.28_-0.29",
      "primitives": [
        {
          "attributes": {
            "POSITION": 8
          },
          "indices": 9,
          "material": 2,
          "mode": 4
        }
      ]
    },
    {
      "name": "wheel_0.28_0.29",
      "primitives": [
        {
          "attributes": {
            "POSITION": 10
          },
          "indices": 11,
          "material": 2,
          "mode": 4
        }
      ]
    }
  ],
  "materials": [
    {
      "name": "car_yellow",
      "pbrMetallicRoughness": {
        "baseColorFactor": [
          0.9,
          0.68,
          0.2,
          1.0
        ],
        "metallicFactor": 0.05,
        "roughnessFactor": 0.62
      }
    },
    {
      "name": "car_cabin",
      "pbrMetallicRoughness": {
        "baseColorFactor": [
          0.96,
          0.78,
          0.3,
          1.0
        ],
        "metallicFactor": 0.05,
        "roughnessFactor": 0.62
      }
    },
    {
      "name": "tire_dark",
      "pbrMetallicRoughness": {
        "baseColorFactor": [
          0.04,
          0.045,
          0.05,
          1.0
        ],
        "metallicFactor": 0.05,
        "roughnessFactor": 0.62
      }
    }
  ],
  "buffers": [
    {
      "uri": "data:application/octet-stream;base64,",
      "byteLength": 5040
    }
  ],
  "bufferViews": [
    {
      "buffer": 0,
      "byteOffset": 0,
      "byteLength": 2592,
      "target": 34962
    },
    {
      "buffer": 0,
      "byteOffset": 2592,
      "byteLength": 2448,
      "target": 34963
    }
  ],
  "accessors": [
    {
      "bufferView": 0,
      "byteOffset": 0,
      "componentType": 5126,
      "count": 8,
      "type": "VEC3",
      "min": [
        -0.44,
        -0.23,
        0.17
      ],
      "max": [
        0.44,
        0.23,
        0.47
      ]
    },
    {
      "bufferView": 1,
      "byteOffset": 0,
      "componentType": 5123,
      "count": 36,
      "type": "SCALAR"
    },
    {
      "bufferView": 0,
      "byteOffset": 96,
      "componentType": 5126,
      "count": 8,
      "type": "VEC3",
      "min": [
        -0.29,
        -0.17,
        0.43999999999999995
      ],
      "max": [
        0.13,
        0.17,
        0.72
      ]
    },
    {
      "bufferView": 1,
      "byteOffset": 72,
      "componentType": 5123,
      "count": 36,
      "type": "SCALAR"
    },
    {
      "bufferView": 0,
      "byteOffset": 192,
      "componentType": 5126,
      "count": 50,
      "type": "VEC3",
      "min": [
        -0.41000000000000003,
        -0.33999999999999997,
        0.04999999999999999
      ],
      "max": [
        -0.15000000000000002,
        -0.24,
        0.31
      ]
    },
    {
      "bufferView": 1,
      "byteOffset": 144,
      "componentType": 5123,
      "count": 288,
      "type": "SCALAR"
    },
    {
      "bufferView": 0,
      "byteOffset": 792,
      "componentType": 5126,
      "count": 50,
      "type": "VEC3",
      "min": [
        -0.41000000000000003,
        0.24,
        0.04999999999999999
      ],
      "max": [
        -0.15000000000000002,
        0.33999999999999997,
        0.31
      ]
    },
    {
      "bufferView": 1,
      "byteOffset": 720,
      "componentType": 5123,
      "count": 288,
      "type": "SCALAR"
    },
    {
      "bufferView": 0,
      "byteOffset": 1392,
      "componentType": 5126,
      "count": 50,
      "type": "VEC3",
      "min": [
        0.15000000000000002,
        -0.33999999999999997,
        0.04999999999999999
      ],
      "max": [
        0.41000000000000003,
        -0.24,
        0.31
      ]
    },
    {
      "bufferView": 1,
      "byteOffset": 1296,
      "componentType": 5123,
      "count": 288,
      "type": "SCALAR"
    },
    {
      "bufferView": 0,
      "byteOffset": 1992,
      "componentType": 5126,
      "count": 50,
      "type": "VEC3",
      "min": [
        0.15000000000000002,
        0.24,
        0.04999999999999999
      ],
      "max": [
        0.41000000000000003,
        0.33999999999999997,
        0.31
      ]
    },
    {
      "bufferView": 1,
      "byteOffset": 1872,
      "componentType": 5123,
      "count": 288,
      "type": "SCALAR"
    }
  ]
}